<svg width="148" height="71" viewBox="0 0 148 71" fill="none" xmlns="http://www.w3.org/2000/svg">
<g filter="url(#filter0_d_118_789)">
<rect x="18.7937" y="5" width="110.413" height="46.4244" rx="10" fill="black"/>
<path d="M54.0877 18.5845H55.9877V30.5245H59.9477V32.1445H54.0877V18.5845ZM66.0347 23.6245C66.0347 22.5979 65.5214 22.0845 64.4947 22.0845C63.468 22.0845 62.9547 22.5979 62.9547 23.6245V29.1645C62.9547 30.1912 63.468 30.7045 64.4947 30.7045C65.5214 30.7045 66.0347 30.1912 66.0347 29.1645V23.6245ZM61.0947 23.5845C61.0947 22.6245 61.3747 21.8645 61.9347 21.3045C62.4947 20.7312 63.348 20.4445 64.4947 20.4445C65.6414 20.4445 66.4947 20.7312 67.0547 21.3045C67.628 21.8645 67.9147 22.6245 67.9147 23.5845V29.2045C67.9147 30.1645 67.628 30.9312 67.0547 31.5045C66.4947 32.0645 65.6414 32.3445 64.4947 32.3445C63.348 32.3445 62.4947 32.0645 61.9347 31.5045C61.3747 30.9312 61.0947 30.1645 61.0947 29.2045V23.5845ZM77.6014 21.3845H76.9214C76.6147 21.3845 76.3547 21.4445 76.1414 21.5645C76.5147 22.0312 76.7014 22.6512 76.7014 23.4245V25.0645C76.7014 25.9979 76.4147 26.7245 75.8414 27.2445C75.2814 27.7645 74.4281 28.0312 73.2814 28.0445C72.6547 28.0445 72.3414 28.3379 72.3414 28.9245C72.3414 29.2045 72.4214 29.4045 72.5814 29.5245C72.7547 29.6445 73.0547 29.7045 73.4814 29.7045H74.6414C76.5347 29.7045 77.4814 30.4979 77.4814 32.0845V32.4245C77.4814 34.2245 76.2081 35.1245 73.6614 35.1245H72.8814C71.4281 35.1245 70.3281 34.8912 69.5814 34.4245V32.6645C70.4614 33.2379 71.5481 33.5245 72.8414 33.5245H73.4814C74.2814 33.5245 74.8481 33.4312 75.1814 33.2445C75.5147 33.0579 75.6814 32.7779 75.6814 32.4045V32.2245C75.6814 31.9045 75.5947 31.6712 75.4214 31.5245C75.2614 31.3645 74.9414 31.2845 74.4614 31.2845H73.2414C71.5214 31.2845 70.6614 30.7045 70.6614 29.5445V29.2245C70.6614 28.4779 71.0147 28.0245 71.7214 27.8645C70.3747 27.4779 69.7014 26.5445 69.7014 25.0645V23.4245C69.7014 22.4779 69.9881 21.7445 70.5614 21.2245C71.1481 20.7045 71.9614 20.4445 73.0014 20.4445C74.0414 20.4445 74.8414 20.6045 75.4014 20.9245C75.6814 20.0712 76.3147 19.6445 77.3014 19.6445H77.6014V21.3845ZM74.8214 25.0445V23.4445C74.8214 22.9512 74.6947 22.5912 74.4414 22.3645C74.1881 22.1245 73.7747 22.0045 73.2014 22.0045C72.6281 22.0045 72.2147 22.1245 71.9614 22.3645C71.7081 22.5912 71.5814 22.9512 71.5814 23.4445V25.0445C71.5814 25.5379 71.7081 25.9045 71.9614 26.1445C72.2147 26.3712 72.6281 26.4845 73.2014 26.4845C73.7747 26.4845 74.1881 26.3712 74.4414 26.1445C74.6947 25.9045 74.8214 25.5379 74.8214 25.0445ZM84.9753 18.5445C84.9753 19.2779 84.6086 19.6445 83.8753 19.6445C83.142 19.6445 82.7753 19.2779 82.7753 18.5445C82.7753 17.7979 83.142 17.4245 83.8753 17.4245C84.6086 17.4245 84.9753 17.7979 84.9753 18.5445ZM82.9353 20.7845H84.8153V32.1445H82.9353V20.7845ZM89.0908 21.1645C89.9441 20.7912 90.7374 20.6045 91.4708 20.6045C92.2174 20.6045 92.8241 20.8312 93.2908 21.2845C93.7708 21.7245 94.0108 22.3645 94.0108 23.2045V32.1445H92.0908V23.5245C92.0908 22.7379 91.6974 22.3445 90.9108 22.3445C90.3374 22.3445 89.7574 22.4912 89.1708 22.7845V32.1445H87.2908V20.6445H89.0908V21.1645Z" fill="white"/>
</g>
<defs>
<filter id="filter0_d_118_789" x="-11.7" y="0.3" width="171.4" height="69.8248" filterUnits="userSpaceOnUse" color-interpolation-filters="sRGB">
<feFlood flood-opacity="0" result="BackgroundImageFix"/>
<feColorMatrix in="SourceAlpha" type="matrix" values="0 0 0 0 0 0 0 0 0 0 0 0 0 0 0 0 0 0 127 0" result="hardAlpha"/>
<feOffset dy="7"/>
<feGaussianBlur stdDeviation="5.85"/>
<feComposite in2="hardAlpha" operator="out"/>
<feColorMatrix type="matrix" values="0 0 0 0 0 0 0 0 0 0 0 0 0 0 0 0 0 0 0.36 0"/>
<feBlend mode="normal" in2="BackgroundImageFix" result="effect1_dropShadow_118_789"/>
<feBlend mode="normal" in="SourceGraphic" in2="effect1_dropShadow_118_789" result="shape"/>
</filter>
</defs>
</svg>
