<svg width="100" height="72" viewBox="0 0 100 72" fill="none" xmlns="http://www.w3.org/2000/svg">
<g filter="url(#filter0_bd_118_787)">
<path d="M17.3434 0.899995C29.4634 0.899995 35.5234 5.64 35.5234 15.12V20.43C35.5234 26.31 33.2434 30.87 28.6834 34.11L21.0334 40.23C18.5134 42.21 16.8934 43.8 16.1734 45C15.4534 46.14 15.0934 47.82 15.0934 50.04V53.37H35.0734V63H4.11336V48.96C4.11336 45.42 4.80336 42.51 6.18336 40.23C7.62336 37.95 9.69336 35.85 12.3934 33.93L20.7634 27.18C22.2634 26.04 23.2834 24.9 23.8234 23.76C24.3634 22.56 24.6334 20.88 24.6334 18.72V16.29C24.6334 14.55 24.0934 13.23 23.0134 12.33C21.9934 11.37 19.6534 10.89 15.9934 10.89C12.3934 10.89 8.82336 11.64 5.28336 13.14V2.7C8.88336 1.5 12.9034 0.899995 17.3434 0.899995ZM65.6537 16.2C65.6537 14.22 65.2037 12.72 64.3037 11.7C63.4637 10.68 61.9337 10.17 59.7137 10.17C57.4937 10.17 55.9337 10.68 55.0337 11.7C54.1937 12.72 53.7737 14.22 53.7737 16.2V48.15C53.7737 50.13 54.1937 51.63 55.0337 52.65C55.9337 53.67 57.4937 54.18 59.7137 54.18C61.9337 54.18 63.4637 53.67 64.3037 52.65C65.2037 51.63 65.6537 50.13 65.6537 48.15V16.2ZM42.9737 15.84C42.9737 11.1 44.3237 7.35 47.0237 4.59C49.7837 1.83 54.0137 0.449995 59.7137 0.449995C65.4137 0.449995 69.6137 1.83 72.3137 4.59C75.0737 7.35 76.4537 11.1 76.4537 15.84V48.51C76.4537 53.25 75.0737 57 72.3137 59.76C69.6137 62.52 65.4137 63.9 59.7137 63.9C54.0137 63.9 49.7837 62.52 47.0237 59.76C44.3237 57 42.9737 53.25 42.9737 48.51V15.84ZM95.8902 57.87C95.8902 61.83 93.8502 63.81 89.7702 63.81C85.6902 63.81 83.6502 61.83 83.6502 57.87C83.6502 53.85 85.6902 51.84 89.7702 51.84C93.8502 51.84 95.8902 53.85 95.8902 57.87Z" fill="black"/>
</g>
<defs>
<filter id="filter0_bd_118_787" x="-5.88672" y="-9.5498" width="111.777" height="83.4502" filterUnits="userSpaceOnUse" color-interpolation-filters="sRGB">
<feFlood flood-opacity="0" result="BackgroundImageFix"/>
<feGaussianBlur in="BackgroundImageFix" stdDeviation="5"/>
<feComposite in2="SourceAlpha" operator="in" result="effect1_backgroundBlur_118_787"/>
<feColorMatrix in="SourceAlpha" type="matrix" values="0 0 0 0 0 0 0 0 0 0 0 0 0 0 0 0 0 0 127 0" result="hardAlpha"/>
<feOffset dy="4"/>
<feGaussianBlur stdDeviation="2"/>
<feComposite in2="hardAlpha" operator="out"/>
<feColorMatrix type="matrix" values="0 0 0 0 0 0 0 0 0 0 0 0 0 0 0 0 0 0 0.25 0"/>
<feBlend mode="normal" in2="effect1_backgroundBlur_118_787" result="effect2_dropShadow_118_787"/>
<feBlend mode="normal" in="SourceGraphic" in2="effect2_dropShadow_118_787" result="shape"/>
</filter>
</defs>
</svg>
