<svg width="16" height="20" viewBox="0 0 16 20" fill="none" xmlns="http://www.w3.org/2000/svg">
<g id="View_hide_duotone">
<path id="Subtract" fill-rule="evenodd" clip-rule="evenodd" d="M10.4755 10.0716C10.4759 10.0479 10.4761 10.0241 10.4761 10.0003C10.4761 8.15938 9.30354 6.66699 7.85708 6.66699C7.83837 6.66699 7.8197 6.66724 7.80107 6.66774L10.4755 10.0716ZM5.48743 8.57887C5.32748 9.01004 5.23804 9.49189 5.23804 10.0003C5.23804 11.8413 6.41062 13.3337 7.85708 13.3337C8.25657 13.3337 8.63517 13.2198 8.97394 13.0163L5.48743 8.57887Z" fill="#7E869E" fill-opacity="0.25"/>
<path id="Subtract_2" fill-rule="evenodd" clip-rule="evenodd" d="M10.4755 10.0716C10.4759 10.0479 10.4761 10.0241 10.4761 10.0003C10.4761 8.15938 9.30354 6.66699 7.85708 6.66699C7.83837 6.66699 7.8197 6.66724 7.80107 6.66774L10.4755 10.0716ZM5.48743 8.57887C5.32748 9.01004 5.23804 9.49189 5.23804 10.0003C5.23804 11.8413 6.41062 13.3337 7.85708 13.3337C8.25657 13.3337 8.63517 13.2198 8.97394 13.0163L8.21444 12.0496C8.08749 12.106 7.96488 12.1337 7.85708 12.1337C7.32684 12.1337 6.43804 11.4642 6.43804 10.0003C6.43804 9.93051 6.44006 9.8625 6.44397 9.79629L5.48743 8.57887Z" fill="black"/>
<path id="Subtract_3" fill-rule="evenodd" clip-rule="evenodd" d="M12.5887 12.7613C13.0512 12.2057 13.4319 11.6617 13.7118 11.2302L13.7535 11.1661C13.9774 10.8229 14.2024 10.4779 14.2024 10.0004C14.2024 9.52293 13.9774 9.17787 13.7535 8.83465L13.7118 8.77063C13.2315 8.03013 12.4546 6.95855 11.4765 6.06556C10.5097 5.18281 9.26496 4.40039 7.85708 4.40039C7.30153 4.40039 6.77138 4.52222 6.27369 4.72396L7.0565 5.72026C7.32216 5.64238 7.5896 5.60039 7.85708 5.60039C8.8214 5.60039 9.78515 6.14619 10.6674 6.95173C11.5384 7.74704 12.2511 8.72385 12.7051 9.4237C12.8443 9.63829 12.9172 9.75272 12.962 9.84708C12.9963 9.91933 13.0024 9.95624 13.0024 10.0004C13.0024 10.0445 12.9963 10.0815 12.962 10.1537C12.9172 10.2481 12.8443 10.3625 12.7051 10.5771C12.4751 10.9316 12.1787 11.3573 11.829 11.7944L12.5887 12.7613ZM4.57352 7.41588C3.91721 8.10409 3.37779 8.85525 3.00903 9.4237C2.86983 9.63829 2.79699 9.75272 2.75216 9.84708C2.71784 9.91933 2.71172 9.95624 2.71172 10.0004C2.71172 10.0445 2.71784 10.0815 2.75216 10.1537C2.79699 10.2481 2.86983 10.3625 3.00903 10.5771C3.46304 11.2769 4.17572 12.2537 5.04675 13.049C5.929 13.8546 6.89276 14.4004 7.85708 14.4004C8.45253 14.4004 9.04777 14.1923 9.62373 13.8434L10.3695 14.7926C9.62246 15.2682 8.77439 15.6004 7.85708 15.6004C6.44919 15.6004 5.20443 14.818 4.23762 13.9352C3.2596 13.0422 2.48268 11.9706 2.00231 11.2302L1.96063 11.1661C1.73677 10.8229 1.51172 10.4779 1.51172 10.0004C1.51172 9.52293 1.73677 9.17787 1.96063 8.83465L2.00231 8.77063C2.41305 8.13747 3.04059 7.26225 3.82529 6.46359L4.57352 7.41588Z" fill="black"/>
<path id="Vector 116" d="M3.27393 1.66699L13.7501 15.0003" stroke="black" stroke-width="1.2"/>
</g>
</svg>
