<svg width="17" height="20" viewBox="0 0 17 20" fill="none" xmlns="http://www.w3.org/2000/svg">
<g id="View_light">
<path id="Ellipse 65_light" d="M10.6112 10.0003C10.6112 11.6544 9.50994 12.8337 8.33344 12.8337C7.15695 12.8337 6.05566 11.6544 6.05566 10.0003C6.05566 8.34629 7.15695 7.16699 8.33344 7.16699C9.50994 7.16699 10.6112 8.34629 10.6112 10.0003Z" stroke="black"/>
<path id="Ellipse 66_light" d="M13.9821 9.05748C14.273 9.47757 14.4184 9.68761 14.4184 10C14.4184 10.3124 14.273 10.5224 13.9821 10.9425C12.979 12.3913 10.8268 15 8.3335 15C5.84023 15 3.68795 12.3913 2.68488 10.9425C2.39404 10.5224 2.24862 10.3124 2.24862 10C2.24862 9.68761 2.39404 9.47757 2.68488 9.05748C3.68795 7.60868 5.84023 5 8.3335 5C10.8268 5 12.979 7.60868 13.9821 9.05748Z" stroke="black"/>
</g>
</svg>
